<?xml version="1.0" encoding="utf-8"?>
<!-- Generator: Adobe Illustrator 23.1.1, SVG Export Plug-In . SVG Version: 6.00 Build 0)  -->
<svg version="1.1" id="Ebene_1" xmlns="http://www.w3.org/2000/svg" xmlns:xlink="http://www.w3.org/1999/xlink" x="0px" y="0px"
	 viewBox="0 0 24.3 24" style="enable-background:new 0 0 24.3 24;" xml:space="preserve">
<style type="text/css">
	.st0{fill:none;}
	.st1{fill:#FFFFFF;}
	.st2{fill:none;stroke:#FF0000;stroke-width:2;stroke-miterlimit:10;}
</style>
<path d="M16.5,12c0-1.8-1-3.3-2.5-4v2.2l2.5,2.4C16.5,12.4,16.5,12.2,16.5,12z M19,12c0,0.9-0.2,1.8-0.5,2.6l1.5,1.5
	c0.7-1.2,1-2.6,1-4.1c0-4.3-3-7.9-7-8.8v2.1C16.9,6.1,19,8.8,19,12z M4.3,3L3,4.3L7.7,9H3v6h4l5,5v-6.7l4.2,4.2
	c-0.7,0.5-1.4,0.9-2.2,1.2v2.1c1.4-0.3,2.6-1,3.7-1.8l2,2l1.3-1.3l-9-9L4.3,3z M12,4L9.9,6.1L12,8.2V4z"/>
<path class="st0" d="M0,0h24v24H0V0z"/>
<circle class="st1" cx="12" cy="12" r="10.9"/>
<circle class="st2" cx="12" cy="12" r="10.9"/>
<path class="st0" d="M0,0h24v24H0V0z"/>
<path class="st0" d="M2,4.6h20v20H2V4.6z"/>
<g>
	<path d="M13.2,14.7h-3c0-0.6,0-1.2,0.1-1.6c0.1-0.4,0.3-0.8,0.5-1.1c0.2-0.3,0.4-0.5,0.7-0.7s0.5-0.3,0.7-0.5
		c0.2-0.1,0.4-0.3,0.6-0.4c0.2-0.1,0.3-0.3,0.4-0.4c0-0.1,0.1-0.2,0-0.4c0-0.1-0.1-0.3-0.2-0.4S12.7,9,12.5,9
		c-0.2-0.1-0.5-0.1-0.8-0.1c-0.2,0-0.5,0-0.8,0.1c-0.3,0-0.6,0.1-0.9,0.2C9.6,9.1,9.3,9.2,9,9.4C8.7,9.5,8.4,9.6,8.2,9.8L7.8,6.2
		C8,6.1,8.2,6,8.5,5.8s0.6-0.3,0.9-0.4c0.3-0.1,0.7-0.2,1.1-0.3s0.8-0.1,1.3-0.1c0.7,0,1.4,0.1,2.1,0.3c0.7,0.2,1.2,0.5,1.7,0.9
		c0.5,0.4,0.9,0.9,1.2,1.5c0.3,0.6,0.4,1.2,0.4,2c0,0.6-0.1,1-0.2,1.4s-0.4,0.6-0.6,0.8c-0.3,0.2-0.5,0.4-0.8,0.6
		c-0.3,0.1-0.6,0.3-0.9,0.5c-0.3,0.2-0.6,0.4-0.8,0.7S13.3,14.2,13.2,14.7z M13.6,17c0,0.3-0.1,0.5-0.2,0.7
		c-0.1,0.2-0.2,0.4-0.4,0.6c-0.2,0.2-0.4,0.3-0.6,0.4c-0.2,0.1-0.5,0.1-0.7,0.1c-0.3,0-0.5,0-0.7-0.1c-0.2-0.1-0.4-0.2-0.6-0.4
		c-0.2-0.2-0.3-0.4-0.4-0.6c-0.1-0.2-0.1-0.5-0.1-0.7c0-0.3,0-0.5,0.1-0.7c0.1-0.2,0.2-0.4,0.4-0.6c0.2-0.2,0.4-0.3,0.6-0.4
		c0.2-0.1,0.5-0.2,0.7-0.2c0.3,0,0.5,0.1,0.7,0.2c0.2,0.1,0.4,0.2,0.6,0.4c0.2,0.2,0.3,0.4,0.4,0.6C13.6,16.5,13.6,16.8,13.6,17z"/>
</g>
</svg>
