<?xml version="1.0" encoding="utf-8"?>
<!-- Generator: Adobe Illustrator 23.1.1, SVG Export Plug-In . SVG Version: 6.00 Build 0)  -->
<svg version="1.1" id="Ebene_1" xmlns="http://www.w3.org/2000/svg" xmlns:xlink="http://www.w3.org/1999/xlink" x="0px" y="0px"
	 viewBox="0 0 24.3 24" style="enable-background:new 0 0 24.3 24;" xml:space="preserve">
<style type="text/css">
	.st0{fill:none;}
	.st1{fill:#FFFFFF;}
	.st2{fill:none;stroke:#FF0000;stroke-width:2;stroke-miterlimit:10;}
</style>
<path d="M16.5,12c0-1.8-1-3.3-2.5-4v2.2l2.5,2.4C16.5,12.4,16.5,12.2,16.5,12z M19,12c0,0.9-0.2,1.8-0.5,2.6l1.5,1.5
	c0.7-1.2,1-2.6,1-4.1c0-4.3-3-7.9-7-8.8v2.1C16.9,6.1,19,8.8,19,12z M4.3,3L3,4.3L7.7,9H3v6h4l5,5v-6.7l4.2,4.2
	c-0.7,0.5-1.4,0.9-2.2,1.2v2.1c1.4-0.3,2.6-1,3.7-1.8l2,2l1.3-1.3l-9-9L4.3,3z M12,4L9.9,6.1L12,8.2V4z"/>
<path class="st0" d="M0,0h24v24H0V0z"/>
<circle class="st1" cx="12" cy="12" r="10.9"/>
<circle class="st2" cx="12" cy="12" r="10.9"/>
<path class="st0" d="M0,0h24v24H0V0z"/>
<path class="st0" d="M2,4.6h20v20H2V4.6z"/>
<path d="M7,5.5c-0.9,0-1.7,0.8-1.7,1.7S6.1,8.8,7,8.8s1.7-0.8,1.7-1.7S7.9,5.5,7,5.5z M7,10.5c-0.9,0-1.7,0.8-1.7,1.7
	c0,0.9,0.8,1.7,1.7,1.7s1.7-0.8,1.7-1.7S7.9,10.5,7,10.5z M7,15.5c-0.9,0-1.7,0.7-1.7,1.7c0,0.9,0.8,1.7,1.7,1.7s1.7-0.8,1.7-1.7
	C8.7,16.2,7.9,15.5,7,15.5z M17,8.8c0.9,0,1.7-0.8,1.7-1.7S17.9,5.5,17,5.5s-1.7,0.8-1.7,1.7S16.1,8.8,17,8.8z M12,15.5
	c-0.9,0-1.7,0.7-1.7,1.7c0,0.9,0.8,1.7,1.7,1.7s1.7-0.8,1.7-1.7C13.7,16.2,12.9,15.5,12,15.5z M17,15.5c-0.9,0-1.7,0.7-1.7,1.7
	c0,0.9,0.7,1.7,1.7,1.7s1.7-0.8,1.7-1.7C18.7,16.2,17.9,15.5,17,15.5z M17,10.5c-0.9,0-1.7,0.8-1.7,1.7c0,0.9,0.7,1.7,1.7,1.7
	s1.7-0.8,1.7-1.7S17.9,10.5,17,10.5z M12,10.5c-0.9,0-1.7,0.8-1.7,1.7c0,0.9,0.8,1.7,1.7,1.7s1.7-0.8,1.7-1.7S12.9,10.5,12,10.5z
	 M12,5.5c-0.9,0-1.7,0.8-1.7,1.7s0.8,1.7,1.7,1.7s1.7-0.8,1.7-1.7S12.9,5.5,12,5.5z"/>
</svg>
