<?xml version="1.0" encoding="utf-8"?>
<!-- Generator: Adobe Illustrator 23.1.1, SVG Export Plug-In . SVG Version: 6.00 Build 0)  -->
<svg version="1.1" id="Ebene_1" xmlns="http://www.w3.org/2000/svg" xmlns:xlink="http://www.w3.org/1999/xlink" x="0px" y="0px"
	 viewBox="0 0 24.3 24" style="enable-background:new 0 0 24.3 24;" xml:space="preserve">
<style type="text/css">
	.st0{fill:none;}
	.st1{fill:#FFFFFF;}
	.st2{fill:#FF0000;}
	.st3{fill:none;stroke:#FF0000;stroke-width:2;stroke-miterlimit:10;}
</style>
<path d="M16.5,12c0-1.8-1-3.3-2.5-4v2.2l2.5,2.4C16.5,12.4,16.5,12.2,16.5,12z M19,12c0,0.9-0.2,1.8-0.5,2.6l1.5,1.5
	c0.7-1.2,1-2.6,1-4.1c0-4.3-3-7.9-7-8.8v2.1C16.9,6.1,19,8.8,19,12z M4.3,3L3,4.3L7.7,9H3v6h4l5,5v-6.7l4.2,4.2
	c-0.7,0.5-1.4,0.9-2.2,1.2v2.1c1.4-0.3,2.6-1,3.7-1.8l2,2l1.3-1.3l-9-9L4.3,3z M12,4L9.9,6.1L12,8.2V4z"/>
<path class="st0" d="M0,0h24v24H0V0z"/>
<circle class="st1" cx="12" cy="12" r="10.9"/>
<path d="M3,9v6h4l5,5V4L7,9H3z M16.5,12c0-1.8-1-3.3-2.5-4v8C15.5,15.3,16.5,13.8,16.5,12z M14,3.2v2.1c2.9,0.9,5,3.5,5,6.7
	s-2.1,5.9-5,6.7v2.1c4-0.9,7-4.5,7-8.8S18,4.1,14,3.2z"/>
<rect x="11.1" y="0.2" transform="matrix(0.7071 -0.7071 0.7071 0.7071 -4.9853 12.0352)" class="st2" width="1.8" height="23.7"/>
<circle class="st3" cx="12" cy="12" r="10.9"/>
<path class="st0" d="M0,0h24v24H0V0z"/>
</svg>
